<svg xmlns="http://www.w3.org/2000/svg" viewBox="0 0 320 352" width="320" height="352" role="img">
<defs><linearGradient id="bg" x1="0" y1="0" x2="1" y2="1"><stop offset="0" stop-color="#2563EB"/><stop offset="1" stop-color="#60A5FA"/></linearGradient>
<linearGradient id="fade" x1="0" y1="0" x2="0" y2="1"><stop offset=".45" stop-color="#fff" stop-opacity="0"/><stop offset="1" stop-color="#0B1220" stop-opacity=".28"/></linearGradient></defs>
<rect width="320" height="352" fill="url(#bg)"/>
<g opacity=".18" stroke="#fff" stroke-width="2" fill="none">
  <circle cx="160" cy="120" r="96"/><circle cx="160" cy="120" r="140"/>
  <path d="M0 250h320M0 300h320"/>
</g>
<g transform="translate(160 214)">
  <ellipse cx="0" cy="120" rx="112" ry="126" fill="#0B1220" fill-opacity=".22"/>
  <circle cx="0" cy="-58" r="44" fill="#E8F0FF"/>
  <path d="M-78 130c0-52 35-88 78-88s78 36 78 88Z" fill="#F8FAFF"/>
  <path d="M-40 52c12 12 28 18 40 18s28-6 40-18l14 10c-16 16-34 24-54 24s-38-8-54-24Z" fill="#2563EB" fill-opacity=".9"/>
</g>
<rect width="320" height="352" fill="url(#fade)"/>
</svg>